<?xml version="1.0"?>
<svg width="1000" height="1000" xmlns="http://www.w3.org/2000/svg" xmlns:svg="http://www.w3.org/2000/svg" enable-background="new 0 0 1000 1000" version="1.1" xml:space="preserve">
 <style type="text/css">.st0{fill:#FFF9EB;}
	.st1{fill:url(#SVGID_1_);}
	.st2{fill:url(#SVGID_00000127763925494894597170000014285755213682887557_);}
	.st3{fill:url(#SVGID_00000137120387083018542520000002225568948398517384_);}
	.st4{fill:url(#SVGID_00000008863728662573053070000010263879476567344807_);}
	.st5{fill:url(#SVGID_00000008832390417195833820000003213967398673811846_);}
	.st6{fill:url(#SVGID_00000108280454665259106850000001106896147653633207_);}
	.st7{fill:url(#SVGID_00000000914248458603318000000009959206909561855897_);}
	.st8{fill:url(#SVGID_00000052811168074967462220000004704059631571901613_);}
	.st9{fill:url(#SVGID_00000169558524662118151480000012595643682482989732_);}
	.st10{fill:url(#SVGID_00000038381032576259672930000012182788607935876745_);}
	.st11{fill:url(#SVGID_00000101807498424603995000000006857511561998816173_);}
	.st12{fill:url(#SVGID_00000163760890330892333150000004922908417086253964_);}
	.st13{fill:url(#SVGID_00000020372668712080068700000003188632432227854511_);}
	.st14{fill:url(#SVGID_00000096762239501901351490000011702148879494624687_);}
	.st15{fill:url(#SVGID_00000051357166775319684320000015453781714760999578_);}
	.st16{fill:url(#SVGID_00000101783689442079152180000001300371251882089369_);}
	.st17{fill:url(#SVGID_00000022522818666449154380000003609532491397549958_);}
	.st18{fill:url(#SVGID_00000155867752802967743210000007054153281432962186_);}
	.st19{fill:url(#SVGID_00000147183213353968046510000015129087382238457533_);}
	.st20{fill:url(#SVGID_00000147180011517853440580000017966290766709235353_);}
	.st21{fill:url(#SVGID_00000034088062493655427250000014588197232458407579_);}
	.st22{fill:url(#SVGID_00000148652596635927031300000010004396877406131902_);}
	.st23{fill:url(#SVGID_00000099649449392377799360000001415056501004319872_);}
	.st24{fill:url(#SVGID_00000106827605726337832780000004969547738992375740_);}
	.st25{fill:url(#SVGID_00000110445446359105511160000007920231955274147760_);}
	.st26{fill:url(#SVGID_00000151505802476373521570000002414768137608204431_);}
	.st27{fill:url(#SVGID_00000103973401362195553610000001363714250936227206_);}
	.st28{fill:url(#SVGID_00000026870261110608675880000015734936102806665880_);}
	.st29{fill:#4B3218;}</style>
 <linearGradient gradientUnits="userSpaceOnUse" id="SVGID_1_" x1="379.59" x2="379.59" y1="656.91" y2="703.04">
  <stop offset="0" stop-color="#5F764A"/>
  <stop offset="1" stop-color="#3E5C32"/>
 </linearGradient>
 <linearGradient id="SVGID_00000164515730869999390490000012369082348496892343_" x1="0.5" x2="0.5" y1="0" y2="1">
  <stop offset="0" stop-color="#5F764A"/>
  <stop offset="1" stop-color="#3E5C32"/>
 </linearGradient>
 <linearGradient id="SVGID_00000039117763748476839870000014738992186589516458_" x1="0.5" x2="0.5" y1="0" y2="1">
  <stop offset="0" stop-color="#5F764A"/>
  <stop offset="1" stop-color="#3E5C32"/>
 </linearGradient>
 <linearGradient id="SVGID_00000099627780469977255380000015638520455237985692_" x1="0.5" x2="0.5" y1="0" y2="1">
  <stop offset="0" stop-color="#9FC091"/>
  <stop offset="1" stop-color="#435F3C"/>
 </linearGradient>
 <linearGradient id="SVGID_00000150066920342307638630000006890164944717526447_" x1="0.5" x2="0.5" y1="0" y2="1">
  <stop offset="0" stop-color="#9FC091"/>
  <stop offset="1" stop-color="#435F3C"/>
 </linearGradient>
 <linearGradient id="SVGID_00000050663225464842485420000008832749675927544462_" x1="0.5" x2="0.5" y1="0" y2="1">
  <stop offset="0" stop-color="#9FC091"/>
  <stop offset="1" stop-color="#435F3C"/>
 </linearGradient>
 <linearGradient id="SVGID_00000029724487585073297200000017630761601944523649_" x1="0.5" x2="0.5" y1="0" y2="1">
  <stop offset="0" stop-color="#89A671"/>
  <stop offset="1" stop-color="#435F3C"/>
 </linearGradient>
 <linearGradient id="SVGID_00000005260300050085002170000007452165501216915084_" x1="0.5" x2="0.5" y1="0" y2="1">
  <stop offset="0" stop-color="#9FC091"/>
  <stop offset="1" stop-color="#435F3C"/>
 </linearGradient>
 <linearGradient id="SVGID_00000088824028339506564630000014270742318614006163_" x1="0.5" x2="0.5" y1="0" y2="1">
  <stop offset="0" stop-color="#9FC091"/>
  <stop offset="1" stop-color="#435F3C"/>
 </linearGradient>
 <linearGradient id="SVGID_00000105405965698321103760000000139783590484902028_" x1="0.5" x2="0.5" y1="0" y2="1">
  <stop offset="0" stop-color="#9FC091"/>
  <stop offset="1" stop-color="#435F3C"/>
 </linearGradient>
 <linearGradient id="SVGID_00000010281071890087187650000014331305422841732014_" x1="0.5" x2="0.5" y1="0" y2="1">
  <stop offset="0" stop-color="#9FC091"/>
  <stop offset="1" stop-color="#435F3C"/>
 </linearGradient>
 <linearGradient id="SVGID_00000172413498428663294780000003341085817649000115_" x1="0.5" x2="0.5" y1="0" y2="1">
  <stop offset="0" stop-color="#738F61"/>
  <stop offset="1" stop-color="#405D3A"/>
 </linearGradient>
 <linearGradient id="SVGID_00000136372404655507610870000012223095958080001704_" x1="0.5" x2="0.5" y1="0" y2="1">
  <stop offset="0" stop-color="#738F61"/>
  <stop offset="1" stop-color="#405D3A"/>
 </linearGradient>
 <linearGradient id="SVGID_00000129918285402484091320000014458948981449479313_" x1="0.5" x2="0.5" y1="0" y2="1">
  <stop offset="0" stop-color="#738F61"/>
  <stop offset="1" stop-color="#405D3A"/>
 </linearGradient>
 <linearGradient id="SVGID_00000060029679560664787630000003522935916033858950_" x1="0.5" x2="0.5" y1="0" y2="1">
  <stop offset="0" stop-color="#738F61"/>
  <stop offset="1" stop-color="#405D3A"/>
 </linearGradient>
 <linearGradient id="SVGID_00000005238633303091672790000012755172740112662187_" x1="0.5" x2="0.5" y1="0" y2="1">
  <stop offset="0" stop-color="#738F61"/>
  <stop offset="1" stop-color="#405D3A"/>
 </linearGradient>
 <linearGradient id="SVGID_00000150807345118305177180000003711277146455952308_" x1="0.5" x2="0.5" y1="0" y2="1">
  <stop offset="0" stop-color="#9FC091"/>
  <stop offset="1" stop-color="#435F3C"/>
 </linearGradient>
 <linearGradient id="SVGID_00000083069075973500574040000010324681131050661785_" x1="0.5" x2="0.5" y1="0" y2="1">
  <stop offset="0" stop-color="#9FC091"/>
  <stop offset="1" stop-color="#435F3C"/>
 </linearGradient>
 <linearGradient id="SVGID_00000142169096432804362220000005204552064914014119_" x1="0.5" x2="0.5" y1="0" y2="1">
  <stop offset="0" stop-color="#89A671"/>
  <stop offset="1" stop-color="#435F3C"/>
 </linearGradient>
 <linearGradient id="SVGID_00000010307624981626792200000002063511529818216066_" x1="0.5" x2="0.5" y1="0" y2="1">
  <stop offset="0" stop-color="#9FC091"/>
  <stop offset="1" stop-color="#435F3C"/>
 </linearGradient>
 <linearGradient id="SVGID_00000160176356581674035670000014048180811986649019_" x1="0.5" x2="0.5" y1="0" y2="1">
  <stop offset="0" stop-color="#9FC091"/>
  <stop offset="1" stop-color="#435F3C"/>
 </linearGradient>
 <linearGradient id="SVGID_00000060735274105570978390000007870968394565333401_" x1="0.5" x2="0.5" y1="0" y2="1">
  <stop offset="0" stop-color="#9FC091"/>
  <stop offset="1" stop-color="#435F3C"/>
 </linearGradient>
 <linearGradient id="SVGID_00000132086187303043583800000007546528180894739369_" x1="0.5" x2="0.5" y1="0" y2="1">
  <stop offset="0" stop-color="#9FC091"/>
  <stop offset="1" stop-color="#435F3C"/>
 </linearGradient>
 <linearGradient id="SVGID_00000007409088701532328810000012891187855485608117_" x1="0.5" x2="0.5" y1="0" y2="1">
  <stop offset="0" stop-color="#738F61"/>
  <stop offset="1" stop-color="#405D3A"/>
 </linearGradient>
 <linearGradient id="SVGID_00000117677198326406007140000013376611279060926627_" x1="0.5" x2="0.5" y1="0" y2="1">
  <stop offset="0" stop-color="#738F61"/>
  <stop offset="1" stop-color="#405D3A"/>
 </linearGradient>
 <linearGradient id="SVGID_00000002360626530855871660000004041558055840753076_" x1="0.5" x2="0.5" y1="0" y2="1">
  <stop offset="0" stop-color="#738F61"/>
  <stop offset="1" stop-color="#405D3A"/>
 </linearGradient>
 <linearGradient id="SVGID_00000081628522763579980460000005891678118940630690_" x1="0.5" x2="0.5" y1="0" y2="1">
  <stop offset="0" stop-color="#738F61"/>
  <stop offset="1" stop-color="#405D3A"/>
 </linearGradient>
 <linearGradient id="SVGID_00000092419312931248108240000014814495187148445847_" x1="0.5" x2="0.5" y1="0" y2="1">
  <stop offset="0" stop-color="#738F61"/>
  <stop offset="1" stop-color="#405D3A"/>
 </linearGradient>
 <g class="layer">
  <title>Layer 1</title>
  <g id="svg_31">
   <path class="st1" d="m418.13,828.5c7.11,-1.96 14.47,-4.52 21.83,-6.56c-70.74,-42.86 -139.13,-45.19 -184.87,-39.24c-51.78,6.74 -86.07,25 -87.51,25.78l15.36,28.53c0.31,-0.16 31.38,-16.56 77.58,-22.33c46.96,-5.88 91.8,0.78 133.83,19.75c7.83,-2.33 15.89,-3.74 23.79,-5.93z" id="svg_2"/>
   <path d="m848.1,811.21l-13.5,29.47c-63.89,-29.26 -130.64,-35.29 -198.42,-17.92c-20.5,5.25 -38.01,11.99 -51.65,18.16c-17.5,-4.13 -35.5,-6.97 -53.89,-8.41c9.02,-5.67 46.39,-27.82 96.16,-40.78c51.96,-13.55 132.54,-21.16 221.3,19.48z" fill="url(#SVGID_00000164515730869999390490000012369082348496892343_)" id="svg_3"/>
   <path d="m502.3,888.11c57.99,0 112.2,16.48 158.22,44.99c12.05,-3.95 23.7,-8.67 33.86,-16.43c-54.36,-38.38 -120.63,-60.97 -192.1,-60.97c-69.93,0 -134.89,21.63 -188.58,58.54c12.98,4.81 26.25,8.9 39.29,13.53c44.06,-25.23 95.03,-39.66 149.31,-39.66z" fill="url(#SVGID_00000039117763748476839870000014738992186589516458_)" id="svg_4"/>
   <path d="m510.76,322.02c0,0 -1.34,-93.88 -8.93,-136.64c-7.57,42.76 -8.91,136.64 -8.91,136.64c-67.27,-52.03 -55.64,-164.85 8.93,-214.13c64.55,49.32 76.15,162.11 8.91,214.13z" fill="url(#SVGID_00000099627780469977255380000015638520455237985692_)" id="svg_5"/>
   <path d="m412.34,301.23c5.49,-36.81 -7.49,-78.53 -71.32,-99.05c-3.78,60.31 18.11,86.78 54.28,94.43c-12.41,-19.82 -22.23,-35.81 -27.51,-57.18c16.56,17.37 29.83,42.16 44.56,61.8z" fill="url(#SVGID_00000150066920342307638630000006890164944717526447_)" id="svg_6"/>
   <path d="m340.6,352.62c-20.76,-19.36 -40.73,-45.06 -60.23,-74.69c7.13,29.65 20.82,54.02 41.97,72.38c-45.24,-0.96 -82.54,-42.05 -80.46,-116.85c79.05,8.02 104.35,63.34 98.72,119.17z" fill="url(#SVGID_00000050663225464842485420000008832749675927544462_)" id="svg_7"/>
   <path d="m331.98,440.41c-31.79,-6.17 -65.86,-20.42 -101.27,-39.28c27.72,27.22 59.48,45.37 97.02,50.44c-63.76,36.33 -141.69,6.93 -182.88,-83.17c94.04,-35.97 163.83,2.9 187.13,72z" fill="url(#SVGID_00000029724487585073297200000017630761601944523649_)" id="svg_8"/>
   <path d="m394.16,325.1c-3.27,43.12 13.33,72.86 55.82,76.43c4.07,-43.88 -15.08,-68.93 -55.82,-76.43zm21.94,31.76c11.75,8.91 24.26,32 24.63,32.71c-21.36,-6.92 -24.63,-32.71 -24.63,-32.71z" fill="url(#SVGID_00000005260300050085002170000007452165501216915084_)" id="svg_9"/>
   <path d="m387.81,119.89c47.65,32.19 45.04,82.29 23.49,88.35c-21.27,5.98 -51.8,-39.28 -23.49,-88.35z" fill="url(#SVGID_00000088824028339506564630000014270742318614006163_)" id="svg_10"/>
   <path d="m286.16,165.22c-8.09,32.24 0,51.02 24.26,56.3c13.14,-19.35 2.9,-48.8 -24.26,-56.3z" fill="url(#SVGID_00000105405965698321103760000000139783590484902028_)" id="svg_11"/>
   <path d="m232.44,319.89c-6.93,-30.41 -34.41,-31.81 -60.65,-21.37c14.7,25.99 39.47,38.12 60.65,21.37z" fill="url(#SVGID_00000010281071890087187650000014331305422841732014_)" id="svg_12"/>
   <path d="m177.39,457.73c-18.11,-17.13 -48.51,-11.55 -69.88,22.52c34.12,9.59 60.03,6.22 69.88,-22.52z" fill="url(#SVGID_00000172413498428663294780000003341085817649000115_)" id="svg_13"/>
   <path d="m208.01,496.23c-20.03,-15.3 -44.09,-3.08 -59.48,24.45c27.71,9.25 58.12,-1.91 59.48,-24.45z" fill="url(#SVGID_00000136372404655507610870000012223095958080001704_)" id="svg_14"/>
   <path d="m193.46,547.83c23.01,-33.3 61,-46.47 82.88,-23.9c-17.26,30.9 -43.7,29.86 -82.88,23.9z" fill="url(#SVGID_00000129918285402484091320000014458948981449479313_)" id="svg_15"/>
   <path d="m244.19,583.25c-37.87,-16.67 -71.23,3.66 -86.64,53.13c35.91,5.01 75.16,-3.5 86.64,-53.13z" fill="url(#SVGID_00000060029679560664787630000003522935916033858950_)" id="svg_16"/>
   <path d="m374.72,528.57c-61.31,-8.54 -107.33,25.31 -118.98,114.73c108.96,-0.19 135.62,-57.23 133.79,-113.68c-27.2,32.08 -56.97,55.46 -88.94,71.32c29.29,-24.92 54.88,-49.21 74.13,-72.38z" fill="url(#SVGID_00000005238633303091672790000012755172740112662187_)" id="svg_17"/>
   <path d="m591.35,301.23c-5.49,-36.81 7.49,-78.53 71.32,-99.05c3.78,60.31 -18.11,86.78 -54.28,94.43c12.41,-19.82 22.23,-35.81 27.51,-57.18c-16.56,17.37 -29.83,42.16 -44.56,61.8z" fill="url(#SVGID_00000150807345118305177180000003711277146455952308_)" id="svg_18"/>
   <path d="m663.1,352.62c20.76,-19.36 40.73,-45.06 60.23,-74.69c-7.13,29.65 -20.82,54.02 -41.97,72.38c45.24,-0.96 82.54,-42.05 80.46,-116.85c-79.05,8.02 -104.35,63.34 -98.72,119.17z" fill="url(#SVGID_00000083069075973500574040000010324681131050661785_)" id="svg_19"/>
   <path d="m671.72,440.41c31.79,-6.17 65.86,-20.42 101.27,-39.28c-27.72,27.22 -59.48,45.37 -97.02,50.44c63.76,36.33 141.69,6.93 182.88,-83.17c-94.04,-35.97 -163.83,2.9 -187.13,72z" fill="url(#SVGID_00000142169096432804362220000005204552064914014119_)" id="svg_20"/>
   <path d="m609.53,325.1c-40.73,7.5 -59.89,32.55 -55.82,76.43c42.48,-3.56 59.09,-33.31 55.82,-76.43zm-46.57,64.47c0.37,-0.71 12.88,-23.8 24.63,-32.71c0,0 -3.27,25.79 -24.63,32.71z" fill="url(#SVGID_00000010307624981626792200000002063511529818216066_)" id="svg_21"/>
   <path d="m615.88,119.89c-47.65,32.19 -45.04,82.29 -23.49,88.35c21.27,5.98 51.8,-39.28 23.49,-88.35z" fill="url(#SVGID_00000160176356581674035670000014048180811986649019_)" id="svg_22"/>
   <path d="m717.54,165.22c8.09,32.24 0,51.02 -24.26,56.3c-13.14,-19.35 -2.9,-48.8 24.26,-56.3z" fill="url(#SVGID_00000060735274105570978390000007870968394565333401_)" id="svg_23"/>
   <path d="m771.25,319.89c6.93,-30.41 34.41,-31.81 60.65,-21.37c-14.7,25.99 -39.47,38.12 -60.65,21.37z" fill="url(#SVGID_00000132086187303043583800000007546528180894739369_)" id="svg_24"/>
   <path d="m826.31,457.73c18.11,-17.13 48.51,-11.55 69.88,22.52c-34.12,9.59 -60.03,6.22 -69.88,-22.52z" fill="url(#SVGID_00000007409088701532328810000012891187855485608117_)" id="svg_25"/>
   <path d="m795.68,496.23c20.03,-15.3 44.09,-3.08 59.48,24.45c-27.71,9.25 -58.12,-1.91 -59.48,-24.45z" fill="url(#SVGID_00000117677198326406007140000013376611279060926627_)" id="svg_26"/>
   <path d="m810.23,547.83c-23.01,-33.3 -61,-46.47 -82.88,-23.9c17.26,30.9 43.7,29.86 82.88,23.9z" fill="url(#SVGID_00000002360626530855871660000004041558055840753076_)" id="svg_27"/>
   <path d="m759.5,583.25c37.87,-16.67 71.23,3.66 86.64,53.13c-35.91,5.01 -75.16,-3.5 -86.64,-53.13z" fill="url(#SVGID_00000081628522763579980460000005891678118940630690_)" id="svg_28"/>
   <path d="m628.97,528.57c61.31,-8.54 107.33,25.31 118.98,114.73c-108.96,-0.19 -135.62,-57.23 -133.79,-113.68c27.2,32.08 56.97,55.46 88.94,71.32c-29.29,-24.92 -54.88,-49.21 -74.13,-72.38z" fill="url(#SVGID_00000092419312931248108240000014814495187148445847_)" id="svg_29"/>
   <path class="st29" d="m840.47,162.89c-90.46,-90.46 -210.72,-140.27 -338.64,-140.27s-248.18,49.81 -338.64,140.27c-90.46,90.46 -140.27,210.72 -140.27,338.64s49.81,248.18 140.27,338.64c90.46,90.46 210.72,140.27 338.64,140.27s248.18,-49.81 338.64,-140.27c90.46,-90.46 140.27,-210.72 140.27,-338.64c0,-127.92 -49.81,-248.18 -140.27,-338.64zm-338.64,-99.76c241.73,0 438.4,196.67 438.4,438.4c0,93.1 -29.2,179.49 -78.87,250.57c-18.18,-7.42 -55.69,-20.58 -104.51,-26.07c-49.08,-5.53 -117.23,-3.74 -188.75,27.29c-23.88,-35.24 -35.56,-77.84 -35.39,-120.31c0.45,-104.64 91.98,-146.65 169.98,-133.12c12.54,2.17 16.49,-15.81 4.03,-19.02c-69.7,-15.52 -152.29,14.39 -182.78,81.97c-1.69,3.58 -3.19,7.26 -4.55,10.99c0,-0.02 0,-0.03 0,-0.06c1.43,-56.95 20.87,-100.41 69.77,-137.2c16.2,-12.64 33.72,-24.11 51.38,-35.61c10.45,-7.26 0.6,-22.86 -10.5,-16.36c-51.8,31.63 -89.55,60.31 -111.39,100.75c-4.94,-10.82 -6.97,-24.76 -7.78,-42.03l0,-67.95c0,-4.21 -2.67,-7.78 -6.42,-9.14c-0.03,-0.02 -0.08,-0.03 -0.11,-0.05c-0.47,-0.16 -0.94,-0.29 -1.44,-0.37c-0.06,-0.02 -0.15,-0.02 -0.21,-0.03c-0.5,-0.08 -1,-0.13 -1.52,-0.13s-1.04,0.05 -1.52,0.13c-0.06,0.02 -0.15,0.02 -0.21,0.03c-0.49,0.1 -0.97,0.21 -1.44,0.37c-0.03,0.02 -0.08,0.03 -0.11,0.05c-3.74,1.36 -6.42,4.93 -6.42,9.14l0,67.95c-0.81,17.27 -2.84,31.21 -7.78,42.03c-21.84,-40.44 -59.59,-69.12 -111.39,-100.75c-11.1,-6.5 -20.95,9.11 -10.5,16.36c17.66,11.5 35.18,22.98 51.38,35.61c48.9,36.8 68.34,80.25 69.77,137.2c0,0.02 0,0.03 0,0.06c-1.36,-3.73 -2.87,-7.4 -4.55,-10.99c-30.51,-67.6 -113.09,-97.49 -182.78,-81.97c-12.46,3.21 -8.51,21.19 4.03,19.02c78,-13.53 169.53,28.48 169.98,133.12c0.18,42.27 -11.41,84.68 -35.06,119.82c-71.13,-30.57 -138.82,-32.31 -187.66,-26.8c-48.85,5.51 -86.38,18.67 -104.54,26.09c-49.69,-71.07 -78.87,-157.47 -78.87,-250.57c-0.05,-241.74 196.62,-438.41 438.35,-438.41zm-339.16,715.87c18.45,-6.87 49.99,-16.62 89,-20.9c76.01,-8.31 146.34,6.69 209.4,44.62c-29.99,12.48 -67.39,26.41 -117.47,41.66c-16.41,-3.89 -33.2,-5.85 -50.31,-5.85c-9.69,0 -19.64,0.63 -29.55,1.88c-11.88,1.49 -22.65,3.76 -31.97,6.25c-25.44,-19.98 -48.62,-42.68 -69.1,-67.66zm609.61,67.34c-20.16,-4.86 -40.56,-7.32 -61.04,-7.32c-22.57,0 -45.66,2.98 -68.63,8.86c-6.21,1.59 -12.1,3.34 -17.68,5.15c27.11,9.92 52.69,23.02 76.28,38.87c-33.85,17.37 -70.25,30.43 -108.48,38.51c-28.08,-10.89 -58.57,-16.88 -90.46,-16.88c-32.02,0 -62.64,6.04 -90.82,17.01c-44.87,-9.43 -87.22,-25.75 -125.91,-47.78c256.04,-67.86 321.17,-146.57 466.43,-124.66c38.55,5.82 69.95,15.1 88.53,21.45c-20.24,24.64 -43.13,47.05 -68.23,66.79z" id="svg_30"/>
  </g>
 </g>
</svg>