<?xml version="1.0" encoding="UTF-8"?>
<svg xmlns="http://www.w3.org/2000/svg" xmlns:xlink="http://www.w3.org/1999/xlink" viewBox="0 0 1530.71 571.23">
  <defs>
    <style>
      .cls-1 {
        fill: #b4b4b4;
      }

      .cls-2 {
        opacity: .83;
      }

      .cls-2, .cls-3 {
        mix-blend-mode: multiply;
      }

      .cls-4 {
        fill: #1d1d1b;
      }

      .cls-3 {
        opacity: .56;
      }

      .cls-5, .cls-6 {
        fill: #fff;
      }

      .cls-6, .cls-7, .cls-8, .cls-9, .cls-10, .cls-11 {
        fill-rule: evenodd;
      }

      .cls-12 {
        fill: #aaaaa9;
      }

      .cls-13 {
        isolation: isolate;
      }

      .cls-7 {
        fill: #e50051;
      }

      .cls-14 {
        fill: #8c8c8b;
      }

      .cls-8 {
        fill: #009fe3;
      }

      .cls-15 {
        fill: #0095db;
      }

      .cls-16 {
        fill: #0075bf;
      }

      .cls-17 {
        fill: #646363;
      }

      .cls-9 {
        stroke: #e50046;
      }

      .cls-9, .cls-10 {
        fill: none;
        stroke-width: 4px;
      }

      .cls-10 {
        stroke: #008bd2;
      }

      .cls-11 {
        fill: url(#linear-gradient);
      }

      .cls-18 {
        fill: #7c7c7b;
      }
    </style>
    <linearGradient id="linear-gradient" x1="350.74" y1="143.06" x2="491.57" y2="323.31" gradientUnits="userSpaceOnUse">
      <stop offset="0" stop-color="#0081c7"/>
      <stop offset="1" stop-color="#0f3567"/>
    </linearGradient>
  </defs>
  <g class="cls-13">
    <g id="Calque_2">
      <g id="Calque_1-2" data-name="Calque_1">
        <g>
          <g>
            <path class="cls-6" d="M501.9,136c-20.69,2.84-39.3,3.89-56.78,7.13-17.04,3.16-32.03,9.97-46.79,17.12-13.77,6.67-28.71,13.58-41.66,22.26-5.97,4-12.3,8.8-18.83,13.13-7.73,5.12-15.58,9.71-27.68,9.13-15.94-.76-32.53-4.92-43.37-11.41,5.05-4.93,10.98-8.78,16.83-12.84,17.34-12,35.74-23.17,56.78-32.24"/>
            <path class="cls-6" d="M559.78,93.83c-25.2,1.93-49.78,2.99-74.19,5.14-24.2,2.13-48.54,3.55-69.91,9.7-40.61,11.7-78.38,28.91-114.42,45.08-18.05,8.1-35.47,17.7-51.93,27.96-16.21,10.1-31.77,21.97-49.93,29.67-9.29,3.94-20.73,6.35-32.24,5.99-24.59-.76-46.02-6.55-66.2-13.41-5.09-1.73-8.69-2.81-14.55-5.42-3.47-1.55-11.3-4.99-11.7-7.99-.23-1.74,5.05-4.7,7.42-6.28,65-43.35,133.06-83.16,223.98-100.15,15.92-2.97,32.22-5.6,49.08-7.42,16.85-1.82,34.06-2.58,52.22-3.42,57.13-2.66,110.73,6.84,152.37,20.54Z"/>
            <path class="cls-6" d="M531.71,95.22c-24.56,6.17-48,11.81-70.48,18.26-22.38,6.42-42.79,16.77-62.2,26.54-38.46,19.34-73.31,45.52-101.01,76.18-13.33,14.75-25.95,33.11-37.66,51.07-12.22,18.73-23.45,35.35-47.08,41.37-23.97,6.11-52.52,6.28-81.89,6.28-13.93,0-28.31-.73-41.66-2-13.23-1.25-26.55-2.21-36.52-7.7,1.68-4.8,5.89-8.05,9.13-11.7,22.51-25.32,47.54-48.84,73.61-71.05,29.68-25.27,61.99-49.1,97.3-67.91,67.8-36.12,151.42-54.85,250.52-59.35,17.93-.81,30.46-.56,47.93,0Z"/>
          </g>
          <g>
            <path class="cls-7" d="M501.9,136c-20.69,2.84-39.3,3.89-56.78,7.13-17.04,3.16-32.03,9.97-46.79,17.12-13.77,6.67-28.71,13.58-41.66,22.26-5.97,4-12.3,8.8-18.83,13.13-7.73,5.12-15.58,9.71-27.68,9.13-15.94-.76-32.53-4.92-43.37-11.41,5.05-4.93,10.98-8.78,16.83-12.84,17.34-12,35.74-23.17,56.78-32.24,41.45-17.86,110.09-27.38,161.5-12.27Z"/>
            <g class="cls-3">
              <path class="cls-8" d="M559.78,93.83c-25.2,1.93-49.78,2.99-74.19,5.14-24.2,2.13-48.54,3.55-69.91,9.7-40.61,11.7-78.38,28.91-114.42,45.08-18.05,8.1-35.47,17.7-51.93,27.96-16.21,10.1-31.77,21.97-49.93,29.67-9.29,3.94-20.73,6.35-32.24,5.99-24.59-.76-46.02-6.55-66.2-13.41-5.09-1.73-8.69-2.81-14.55-5.42-3.47-1.55-11.3-4.99-11.7-7.99-.23-1.74,5.05-4.7,7.42-6.28,65-43.35,133.06-83.16,223.98-100.15,15.92-2.97,32.22-5.6,49.08-7.42,16.85-1.82,34.06-2.58,52.22-3.42,57.13-2.66,110.73,6.84,152.37,20.54Z"/>
            </g>
            <path class="cls-11" d="M543.91,0c.24-.05.27.11.29.29-4.43,12.55,2.47,27.71,9.13,34.24,7.27,7.12,16.86,10.52,27.96,12.84,22.17,4.64,51.47,8.89,61.06,24.82,5.36,8.91,6.97,23.59,5.42,39.95,15.41,2.52,28.1,5.9,38.52,13.41,5.02,3.62,9.56,7.84,13.98,11.98,4.38,4.11,8.97,8.25,12.27,13.13-32.26-1.3-64.11-1.17-93.3.85-60.16,4.17-100.96,25.47-140.67,50.5-19.73,12.44-38.48,25.68-55.93,39.66-34.81,27.89-67.61,59.89-105,86.17-9.76,6.86-18.87,12.85-31.96,15.98-39.79,9.51-90.5,3.19-133.82.29,11.66-16.31,26.51-29.94,40.8-43.94,14.38-14.09,29.56-27.35,44.8-40.52,45.72-39.51,96.64-73.85,155.51-100.15,39.42-17.61,83.29-29.54,131.25-39.38,23.5-4.82,48.03-9.87,73.9-11.13.04,16.18,21.81,23.43,35.1,15.12,3.34-2.09,6.43-6.18,6.85-10.56.59-6.12-2.98-13.84-6.56-17.12-6.87-6.29-20.32-8.9-33.67-9.99-13.39-1.09-27.32-2.09-39.09-4-13.49-2.18-24.2-4.45-35.38-8.27-15.91-5.44-37.78-15.56-30.53-39.09,2.76-8.97,13.92-15.27,21.69-20.26,9.17-5.89,17.52-10.06,27.39-14.84Z"/>
            <g class="cls-2">
              <path class="cls-8" d="M531.71,95.22c-24.56,6.17-48,11.81-70.48,18.26-22.38,6.42-42.79,16.77-62.2,26.54-38.46,19.34-73.31,45.52-101.01,76.18-13.33,14.75-25.95,33.11-37.66,51.07-12.22,18.73-23.45,35.35-47.08,41.37-23.97,6.11-52.52,6.28-81.89,6.28-13.93,0-28.31-.73-41.66-2-13.23-1.25-26.55-2.21-36.52-7.7,1.68-4.8,5.89-8.05,9.13-11.7,22.51-25.32,47.54-48.84,73.61-71.05,29.68-25.27,61.99-49.1,97.3-67.91,67.8-36.12,151.42-54.85,250.52-59.35,17.93-.81,30.46-.56,47.93,0Z"/>
            </g>
          </g>
          <g>
            <path class="cls-1" d="M721.22,408c0,7-2.33,13.01-7,17.01-4.67,4.34-10.01,6.67-16.34,6.67-9.34,0-16.68-4-22.01-12.01l-30.35-44.36h-146.08l-30.35,44.36c-4.67,6.67-10.01,10.01-16.68,10.01-6,0-11.01-2.33-15.68-6.67-5-4.67-7.34-9.34-7.34-14.34,0-2,.67-3.67,1.67-5.34l114.4-175.1c5.34-8,14.34-12.67,27.01-13.34,4.67,0,9.67,1,15.01,3.33,6.34,2.67,10,6,11.34,10.34l121.4,172.09c.67,2.33,1,5,1,7.34ZM572.81,269.26l-43.69,64.04h86.71l-43.02-64.04Z"/>
            <path class="cls-14" d="M972.02,429.01c-1.33,0-3,0-4.67-.33-5.67-.33-12.01-4-19.68-10.67l-159.09-135.08v125.74c0,9-3,14.67-9.34,17.34-3.34,1-10.01,1.67-20.01,1.67-12.67,0-19.01-6.34-19.01-19.01v-165.42c0-6.67.67-11.34,1.67-14.01,1.67-3.67,5.34-7.34,10.67-10.34,3.67-2.33,8-3.34,12.34-3.34,9.34,0,19.01,4,28.35,12.01l156.42,133.41v-125.07c0-8.67,3-14.67,9.67-17.01,3-1.33,9.67-1.67,19.68-1.67,12.67,0,19.01,6.34,19.01,18.68v164.42c0,19.01-8.67,28.68-26.01,28.68Z"/>
            <path class="cls-16" d="M1242.83,346.63c-15.34,7-34.69,10.34-58.03,10.34h-119.4v51.69c0,9-3,14.67-9.34,17.34-3.34,1-10.01,1.67-20.01,1.67-12.67,0-19.01-6.34-19.01-19.01v-172.76c0-12.34,6.34-18.68,19.01-18.68h150.42c20.34,0,38.69,3.34,55.7,10.34,22.68,9.34,34.02,22.35,34.02,40.02v30.68c0,22.35-11.01,38.69-33.35,48.36ZM1227.82,269.93c0-6-5.67-9.67-17.01-10.67-1-.33-9-.33-24.01-.33h-121.4v56.36h121.73c12.67,0,21.35-.67,25.68-1.67,10.01-2.67,15.01-8,15.01-16.68v-27.02Z"/>
            <path class="cls-15" d="M1524.31,400.33c-10.01,18.34-39.02,27.35-86.71,27.35h-125.4c-12.34,0-18.68-6.34-18.68-19.01,0-15.34,6.34-23.01,18.68-23.01h125.4c15.01,0,23.68,0,25.68-.33,12.34-1.33,18.68-5.34,18.68-12.34v-17.01c0-6.34-8-10.67-24.01-12.67-6.34-.67-18.68-1-37.02-1h-1.33c-38.69,0-66.7-2.33-83.38-6.67-28.68-8.01-43.02-23.68-43.02-47.03v-14.68c0-26.35,13.34-43.36,40.69-51.03,13.01-4,36.69-5.67,71.04-5.67,12.67,0,19.01,6.34,19.01,18.68v4c0,12.67-6.34,19.01-19.01,19.01-20.35,0-32.35.33-35.69.67-18.34,1.67-27.68,6.34-27.68,14.01v13.67c0,8.34,16.01,12.34,48.03,12.34h48.36c22.68,0,42.36,3.67,58.7,10.67,22.34,9.67,33.68,24.68,33.68,44.36v17.68c0,11.67-2,21.01-6,28.02Z"/>
          </g>
          <g>
            <g>
              <path class="cls-12" d="M56.67,550.63l-2.41-15.25h-14.48l-2.52,15.25h-10.18l14.9-78.72h10.6l14.69,78.72h-10.6ZM47.54,496.33h-.73l-5.56,30.29h11.54l-5.25-30.29Z"/>
              <path class="cls-12" d="M93.91,550.63h-15.42c-4.51,0-5.67-3.09-5.67-6.18v-9.48h9.97v7.52h6.82v-6.7l-15.53-14.53c-1.15-.93-1.57-2.99-1.57-4.64v-8.76c0-3.09,1.05-6.19,5.67-6.19h15.53c4.51,0,5.88,3.09,5.88,6.19v9.17h-9.97v-7.21h-7.13v5.15l14.58,13.5c2.1,1.75,2.52,3.81,2.52,5.67v10.3c0,3.3-1.16,6.18-5.67,6.18Z"/>
              <path class="cls-12" d="M128.94,550.63h-15.42c-4.51,0-5.67-3.09-5.67-6.18v-9.48h9.97v7.52h6.82v-6.7l-15.53-14.53c-1.15-.93-1.57-2.99-1.57-4.64v-8.76c0-3.09,1.05-6.19,5.67-6.19h15.53c4.51,0,5.88,3.09,5.88,6.19v9.17h-9.97v-7.21h-7.13v5.15l14.58,13.5c2.1,1.75,2.52,3.81,2.52,5.67v10.3c0,3.3-1.16,6.18-5.67,6.18Z"/>
              <path class="cls-12" d="M164.92,550.63h-15.53c-5.04,0-6.29-2.88-6.29-6.18v-36.58c0-3.3,1.26-6.19,6.29-6.19h15.53c5.04,0,6.82,2.89,6.82,6.19v36.58c0,3.3-1.78,6.18-6.82,6.18ZM161.77,509.83h-8.71v32.66h8.71v-32.66Z"/>
              <path class="cls-12" d="M201.84,550.63h-15c-5.04,0-6.29-2.88-6.29-6.18v-36.58c0-3.3,1.26-6.19,6.29-6.19h15c5.03,0,6.29,2.79,6.29,6.19v9.37h-9.76v-7.41h-7.87v32.66h7.87v-9.07h9.76v11.02c0,3.4-1.26,6.18-6.29,6.18Z"/>
              <path class="cls-12" d="M216.51,492.2v-11.64h10.49v11.64h-10.49ZM216.73,550.63v-48.94h10.07v48.94h-10.07Z"/>
              <path class="cls-12" d="M254.28,550.63v-1.23l-11.64,1.75c-4.09,0-7.03-2.58-7.03-6.18v-16.8c0-5.05,2.2-7.83,7.45-7.83h11.23v-10.51h-8.29v5.15h-9.97v-7.11c0-3.51,1.47-6.19,6.51-6.19h15.42c5.04,0,6.3,2.99,6.3,6.19v42.76h-9.97ZM254.28,528.58h-8.71v14.11h8.71v-14.11Z"/>
              <path class="cls-12" d="M284.91,509.83v32.66h6.4v8.14h-9.86c-5.03,0-6.5-2.88-6.5-6.08v-34.72h-6.09v-8.14h6.09v-15.25h9.97v15.25h8.18v8.14h-8.18Z"/>
              <path class="cls-12" d="M298.12,492.2v-11.64h10.49v11.64h-10.49ZM298.33,550.63v-48.94h10.07v48.94h-10.07Z"/>
              <path class="cls-12" d="M339.03,550.63h-15.53c-5.04,0-6.29-2.88-6.29-6.18v-36.58c0-3.3,1.26-6.19,6.29-6.19h15.53c5.04,0,6.82,2.89,6.82,6.19v36.58c0,3.3-1.78,6.18-6.82,6.18ZM335.88,509.83h-8.71v32.66h8.71v-32.66Z"/>
            </g>
            <g>
              <path class="cls-12" d="M373.25,550.63v-40.29h-8.71v40.29h-9.97v-48.94h9.97v1.03l11.65-1.65c5.88,0,7.03,3.09,7.03,6.29v43.28h-9.97Z"/>
              <path class="cls-12" d="M448.04,550.63l-18.36-41.63v41.63h-9.55v-78.72h5.35l18.57,43.07v-43.07h9.55v78.72h-5.56Z"/>
              <path class="cls-12" d="M482.12,550.63v-1.23l-11.64,1.75c-4.09,0-7.03-2.58-7.03-6.18v-16.8c0-5.05,2.2-7.83,7.45-7.83h11.23v-10.51h-8.29v5.15h-9.97v-7.11c0-3.51,1.47-6.19,6.5-6.19h15.42c5.04,0,6.3,2.99,6.3,6.19v42.76h-9.97ZM482.12,528.58h-8.71v14.11h8.71v-14.11Z"/>
              <path class="cls-12" d="M512.64,509.83v32.66h6.4v8.14h-9.86c-5.03,0-6.51-2.88-6.51-6.08v-34.72h-6.08v-8.14h6.08v-15.25h9.97v15.25h8.18v8.14h-8.18Z"/>
              <path class="cls-12" d="M525.75,492.2v-11.64h10.49v11.64h-10.49ZM525.96,550.63v-48.94h10.07v48.94h-10.07Z"/>
              <path class="cls-12" d="M566.56,550.63h-15.53c-5.04,0-6.29-2.88-6.29-6.18v-36.58c0-3.3,1.26-6.19,6.29-6.19h15.53c5.04,0,6.82,2.89,6.82,6.19v36.58c0,3.3-1.78,6.18-6.82,6.18ZM563.41,509.83h-8.71v32.66h8.71v-32.66Z"/>
              <path class="cls-12" d="M600.75,550.63v-40.29h-8.71v40.29h-9.97v-48.94h9.97v1.03l11.64-1.65c5.88,0,7.03,3.09,7.03,6.29v43.28h-9.97Z"/>
              <path class="cls-12" d="M637.78,550.63v-1.23l-11.64,1.75c-4.09,0-7.03-2.58-7.03-6.18v-16.8c0-5.05,2.2-7.83,7.45-7.83h11.22v-10.51h-8.29v5.15h-9.97v-7.11c0-3.51,1.47-6.19,6.51-6.19h15.42c5.04,0,6.3,2.99,6.3,6.19v42.76h-9.97ZM637.78,528.58h-8.71v14.11h8.71v-14.11Z"/>
              <path class="cls-12" d="M656.65,550.63v-78.72h9.97v78.72h-9.97Z"/>
              <path class="cls-12" d="M696.93,550.63c-3.46-.1-7.66,0-15.11,0-5.04,0-6.29-2.88-6.29-6.18v-36.58c0-3.3,1.26-6.19,6.29-6.19h15.11c5.04,0,6.3,2.89,6.3,6.19v18.03l-2.31,2.27h-15.42v14.32h7.76v-7.83h9.97v9.79c0,3.4-1.26,6.28-6.3,6.18ZM693.26,509.83h-7.76v10.61h7.76v-10.61Z"/>
              <path class="cls-12" d="M758.19,550.63v-1.03l-7.97,1.55c-7.45,0-10.91-6.08-10.91-12.26v-25.86c0-6.18,3.78-11.34,11.23-11.34h7.34v-29.77h10.07v78.72h-9.76ZM757.98,509.83h-2.94c-4.72,0-5.77,2.47-5.77,6.07v19.99c0,4.02,1.47,6.18,5.77,6.18h2.94v-32.25Z"/>
              <path class="cls-12" d="M798.26,550.63c-3.46-.1-7.66,0-15.11,0-5.04,0-6.3-2.88-6.3-6.18v-36.58c0-3.3,1.26-6.19,6.3-6.19h15.11c5.03,0,6.29,2.89,6.29,6.19v18.03l-2.3,2.27h-15.43v14.32h7.76v-7.83h9.97v9.79c0,3.4-1.26,6.28-6.29,6.18ZM794.58,509.83h-7.76v10.61h7.76v-10.61Z"/>
              <path class="cls-12" d="M834.13,550.63h-15.43c-4.51,0-5.66-3.09-5.66-6.18v-9.48h9.96v7.52h6.83v-6.7l-15.53-14.53c-1.15-.93-1.57-2.99-1.57-4.64v-8.76c0-3.09,1.05-6.19,5.67-6.19h15.52c4.51,0,5.88,3.09,5.88,6.19v9.17h-9.97v-7.21h-7.14v5.15l14.59,13.5c2.1,1.75,2.52,3.81,2.52,5.67v10.3c0,3.3-1.16,6.18-5.67,6.18Z"/>
            </g>
            <g>
              <path class="cls-17" d="M902.83,520.33h-15.62v30.29h-10.29v-78.72h25.39c5.04,0,7.55,2.68,7.55,6.59v35.13c0,4.12-2.63,6.7-7.03,6.7ZM899.58,480.46h-12.38v31.32h12.38v-31.32Z"/>
              <path class="cls-17" d="M939.54,550.63h-15.53c-5.03,0-6.29-2.88-6.29-6.18v-36.58c0-3.3,1.26-6.19,6.29-6.19h15.53c5.04,0,6.82,2.89,6.82,6.19v36.58c0,3.3-1.78,6.18-6.82,6.18ZM936.39,509.83h-8.71v32.66h8.71v-32.66Z"/>
              <path class="cls-17" d="M973.94,550.63v-1.03l-7.97,1.55c-7.45,0-10.91-6.08-10.91-12.26v-25.86c0-6.18,3.78-11.34,11.22-11.34h7.34v-29.77h10.08v78.72h-9.76ZM973.73,509.83h-2.94c-4.72,0-5.77,2.47-5.77,6.07v19.99c0,4.02,1.47,6.18,5.77,6.18h2.94v-32.25Z"/>
              <path class="cls-17" d="M1014.43,550.63h-15.53c-5.03,0-6.29-2.88-6.29-6.18v-36.58c0-3.3,1.26-6.19,6.29-6.19h15.53c5.04,0,6.82,2.89,6.82,6.19v36.58c0,3.3-1.78,6.18-6.82,6.18ZM1011.28,509.83h-8.71v32.66h8.71v-32.66Z"/>
              <path class="cls-17" d="M1030.15,550.63v-78.72h9.97v78.72h-9.97Z"/>
              <path class="cls-17" d="M1070.86,550.63h-15.53c-5.04,0-6.3-2.88-6.3-6.18v-36.58c0-3.3,1.26-6.19,6.3-6.19h15.53c5.04,0,6.82,2.89,6.82,6.19v36.58c0,3.3-1.78,6.18-6.82,6.18ZM1067.71,509.83h-8.71v32.66h8.71v-32.66Z"/>
              <path class="cls-17" d="M1108.52,567.11h-15c-5.04,0-6.3-2.89-6.3-6.18v-5.36h9.65v3.61h8.18v-9.48l-10.81.93c-5.03,0-7.86-3.4-7.86-8.14v-29.47c0-6.18,3.88-12.27,11.23-11.34l7.45,1.03v-1.03h9.97v59.25c0,3.19-2.31,6.18-6.5,6.18ZM1105.05,510.34h-4.09c-3.57,0-4.61.83-4.61,4.43v27.72h8.71v-32.15Z"/>
              <path class="cls-17" d="M1143.02,550.63v-1.55l-12.17,2.16c-5.88,0-7.03-3.09-7.03-6.28v-43.28h9.97v40.39h8.71v-40.39h9.97v48.94h-9.43Z"/>
              <path class="cls-17" d="M1182.56,550.63c-3.46-.1-7.65,0-15.11,0-5.03,0-6.29-2.88-6.29-6.18v-36.58c0-3.3,1.26-6.19,6.29-6.19h15.11c5.04,0,6.29,2.89,6.29,6.19v18.03l-2.31,2.27h-15.42v14.32h7.76v-7.83h9.96v9.79c0,3.4-1.26,6.28-6.29,6.18ZM1178.89,509.83h-7.76v10.61h7.76v-10.61Z"/>
            </g>
            <path class="cls-17" d="M1217.9,550.63h-15.42c-4.52,0-5.67-3.09-5.67-6.18v-9.48h9.96v7.52h6.82v-6.7l-15.52-14.53c-1.16-.93-1.57-2.99-1.57-4.64v-8.76c0-3.09,1.04-6.19,5.67-6.19h15.52c4.52,0,5.87,3.09,5.87,6.19v9.17h-9.97v-7.21h-7.13v5.15l14.58,13.5c2.09,1.75,2.52,3.81,2.52,5.67v10.3c0,3.3-1.15,6.18-5.67,6.18Z"/>
            <g>
              <path class="cls-12" d="M1278.21,550.63v-1.03l-7.98,1.55c-7.45,0-10.91-6.08-10.91-12.26v-25.86c0-6.18,3.78-11.34,11.22-11.34h7.35v-29.77h10.07v78.72h-9.75ZM1278,509.83h-2.93c-4.72,0-5.77,2.47-5.77,6.07v19.99c0,4.02,1.47,6.18,5.77,6.18h2.93v-32.25Z"/>
              <path class="cls-12" d="M1316.07,550.63v-1.55l-12.17,2.16c-5.87,0-7.02-3.09-7.02-6.28v-43.28h9.96v40.39h8.71v-40.39h9.97v48.94h-9.44Z"/>
            </g>
            <g>
              <path class="cls-18" d="M1384.91,550.63h-17c-3.26,0-6.3-2.37-6.3-6.49v-20.51h10.28v18.44h8.81v-17.82l-17.1-24.01c-1.16-1.75-2-3.3-2-5.15v-16.79c0-3.29,2.63-6.39,6.3-6.39h17c3.98,0,6.29,2.78,6.29,6.59v16.07h-10.28v-14.12h-8.81v13.81l16.36,22.67c1.47,2.26,2.73,4.33,2.73,6.59v20.5c0,3.61-2.41,6.6-6.29,6.6Z"/>
              <path class="cls-18" d="M1417.32,550.63h-7.45v20.61h-9.98v-69.55h9.98v1.03l10.06-1.65c7.03,0,8.61,3.92,8.61,8.35v29.88c0,6.18-3.88,11.33-11.23,11.33ZM1418.58,510.34h-8.7v32.36h2.93c4.72,0,5.77-2.68,5.77-6.29v-26.07Z"/>
              <path class="cls-18" d="M1459.07,550.63h-15.53c-5.03,0-6.29-2.88-6.29-6.18v-36.58c0-3.3,1.26-6.19,6.29-6.19h15.53c5.04,0,6.82,2.89,6.82,6.19v36.58c0,3.3-1.78,6.18-6.82,6.18ZM1455.92,509.83h-8.71v32.66h8.71v-32.66Z"/>
              <path class="cls-18" d="M1491.47,518.58v-7.83h-6.92v39.88h-9.97v-48.94h9.97v1.96l9.97-2.58c5.25,0,7.03,2.58,7.03,6.29v11.23h-10.07Z"/>
            </g>
            <path class="cls-18" d="M1522.53,509.83v32.66h6.4v8.14h-9.87c-5.04,0-6.51-2.88-6.51-6.08v-34.72h-6.08v-8.14h6.08v-15.25h9.97v15.25h8.18v8.14h-8.18Z"/>
          </g>
          <g>
            <g>
              <path class="cls-4" d="M.68,168.21c.96-1.03,2.58-1.05,3.57-.04.94.96.96,2.45.04,3.44-.97,1.03-2.58,1.05-3.57.04-.95-.96-.97-2.45-.04-3.44Z"/>
              <path class="cls-4" d="M24.11,167.92c.96-1.03,2.58-1.05,3.57-.04.95.96.96,2.45.04,3.43-.96,1.03-2.58,1.05-3.57.04-.94-.97-.96-2.45-.04-3.44Z"/>
              <path class="cls-4" d="M47.54,167.64c.96-1.03,2.58-1.05,3.57-.04.95.96.96,2.45.04,3.44-.96,1.03-2.58,1.05-3.57.04-.94-.97-.96-2.45-.04-3.44Z"/>
              <path class="cls-4" d="M70.98,167.35c.96-1.03,2.57-1.05,3.57-.04.94.96.96,2.45.04,3.44-.97,1.03-2.58,1.05-3.57.04-.95-.97-.97-2.45-.04-3.44Z"/>
              <path class="cls-4" d="M94.41,167.06c.96-1.03,2.58-1.05,3.57-.04.95.97.97,2.45.04,3.44-.97,1.03-2.58,1.05-3.57.04-.95-.97-.97-2.45-.04-3.44Z"/>
              <path class="cls-4" d="M117.84,166.77c.96-1.03,2.57-1.05,3.57-.04.94.97.96,2.45.04,3.44-.97,1.03-2.58,1.05-3.57.04-.95-.97-.97-2.45-.04-3.44Z"/>
              <path class="cls-4" d="M141.27,166.48c.96-1.03,2.57-1.05,3.56-.04.94.96.96,2.45.04,3.43-.96,1.03-2.58,1.05-3.56.04-.95-.97-.97-2.45-.04-3.44Z"/>
              <path class="cls-4" d="M164.7,166.19c.96-1.03,2.58-1.05,3.57-.04.95.96.96,2.45.04,3.43-.96,1.03-2.58,1.05-3.57.04-.94-.97-.96-2.45-.04-3.43Z"/>
              <path class="cls-4" d="M188.13,165.9c.96-1.03,2.58-1.05,3.57-.04.95.96.96,2.45.04,3.44-.96,1.03-2.58,1.05-3.57.04-.95-.97-.97-2.45-.04-3.44Z"/>
              <path class="cls-4" d="M211.57,165.62c.96-1.03,2.57-1.05,3.57-.04.95.96.96,2.45.04,3.44-.97,1.03-2.58,1.05-3.57.04-.95-.97-.97-2.45-.04-3.44Z"/>
              <path class="cls-4" d="M235,165.33c.96-1.03,2.58-1.05,3.57-.04.94.97.96,2.45.04,3.44-.97,1.03-2.58,1.05-3.57.04-.95-.97-.97-2.45-.04-3.44Z"/>
              <path class="cls-4" d="M258.43,165.04c.96-1.03,2.57-1.05,3.56-.04.95.96.96,2.45.04,3.44-.96,1.03-2.58,1.05-3.56.04-.95-.97-.97-2.45-.04-3.44Z"/>
              <path class="cls-4" d="M281.87,164.75c.96-1.03,2.58-1.05,3.57-.04.94.96.96,2.45.04,3.44-.96,1.03-2.58,1.05-3.57.04-.94-.97-.96-2.45-.04-3.44Z"/>
              <path class="cls-4" d="M305.3,164.46c.96-1.03,2.58-1.05,3.57-.04.95.96.96,2.45.04,3.44-.96,1.03-2.58,1.05-3.57.04-.95-.97-.97-2.45-.04-3.44Z"/>
            </g>
            <g>
              <path class="cls-4" d="M.89,193.63c.96-1.03,2.57-1.05,3.57-.04.94.96.96,2.45.04,3.44-.97,1.03-2.58,1.05-3.57.04-.95-.96-.97-2.45-.04-3.44Z"/>
              <path class="cls-4" d="M24.33,193.35c.96-1.03,2.57-1.05,3.57-.04.94.96.96,2.45.04,3.43-.97,1.03-2.58,1.05-3.57.04-.95-.97-.97-2.45-.04-3.44Z"/>
              <path class="cls-4" d="M47.76,193.06c.96-1.03,2.57-1.05,3.57-.04.94.96.96,2.45.04,3.44-.97,1.03-2.58,1.05-3.57.04-.95-.97-.97-2.45-.04-3.43Z"/>
              <path class="cls-4" d="M71.19,192.77c.96-1.03,2.58-1.05,3.57-.04.94.97.96,2.45.04,3.44-.96,1.03-2.58,1.05-3.57.04-.95-.97-.96-2.45-.04-3.44Z"/>
              <path class="cls-4" d="M94.62,192.48c.96-1.03,2.58-1.05,3.57-.04.94.96.96,2.45.04,3.44-.96,1.03-2.58,1.05-3.57.04-.94-.96-.96-2.45-.04-3.44Z"/>
              <path class="cls-4" d="M118.06,192.19c.96-1.03,2.57-1.05,3.57-.04.94.96.96,2.45.04,3.44-.97,1.03-2.58,1.05-3.57.05-.95-.97-.97-2.45-.04-3.44Z"/>
              <path class="cls-4" d="M141.49,191.9c.96-1.03,2.57-1.05,3.57-.04.94.96.96,2.45.04,3.44-.97,1.03-2.58,1.05-3.57.04-.95-.97-.97-2.45-.04-3.44Z"/>
              <path class="cls-4" d="M164.92,191.62c.96-1.03,2.57-1.05,3.57-.04.94.96.96,2.45.04,3.43-.97,1.03-2.58,1.05-3.57.05-.95-.97-.97-2.45-.04-3.44Z"/>
              <path class="cls-4" d="M188.35,191.33c.96-1.03,2.57-1.05,3.56-.04.94.97.96,2.45.04,3.44-.96,1.03-2.58,1.05-3.56.04-.95-.97-.97-2.45-.04-3.44Z"/>
              <path class="cls-4" d="M211.78,191.04c.96-1.03,2.58-1.05,3.57-.04.94.96.96,2.45.04,3.44-.96,1.03-2.58,1.05-3.57.04-.95-.97-.96-2.45-.04-3.44Z"/>
              <path class="cls-4" d="M235.22,190.75c.96-1.03,2.58-1.05,3.57-.04.94.96.96,2.45.04,3.44-.96,1.03-2.58,1.05-3.57.04-.95-.97-.97-2.45-.04-3.44Z"/>
              <path class="cls-4" d="M258.65,190.46c.96-1.03,2.57-1.05,3.57-.04.94.96.96,2.45.04,3.44-.97,1.03-2.58,1.05-3.57.04-.95-.97-.97-2.45-.04-3.44Z"/>
              <path class="cls-4" d="M282.08,190.17c.96-1.03,2.57-1.05,3.57-.04.94.96.96,2.45.04,3.44-.97,1.03-2.58,1.05-3.57.04-.95-.97-.97-2.45-.04-3.44Z"/>
              <path class="cls-4" d="M305.51,189.89c.96-1.03,2.57-1.05,3.56-.04.94.96.96,2.45.04,3.44-.96,1.03-2.58,1.05-3.56.04-.95-.97-.97-2.45-.04-3.43Z"/>
            </g>
            <g>
              <path class="cls-4" d="M1.28,219.13c.96-1.03,2.58-1.05,3.57-.04.94.96.96,2.45.04,3.44-.97,1.03-2.58,1.05-3.57.04-.95-.97-.97-2.45-.04-3.44Z"/>
              <path class="cls-4" d="M24.7,218.84c.96-1.03,2.58-1.05,3.57-.04.94.96.96,2.45.04,3.44-.96,1.03-2.58,1.05-3.57.04-.95-.96-.96-2.45-.04-3.44Z"/>
              <path class="cls-4" d="M48.14,218.55c.97-1.03,2.58-1.05,3.57-.04.94.97.96,2.45.04,3.44-.96,1.03-2.58,1.05-3.57.05-.95-.97-.97-2.45-.04-3.44Z"/>
              <path class="cls-4" d="M71.57,218.26c.96-1.03,2.57-1.05,3.57-.04.94.96.96,2.45.04,3.44-.97,1.03-2.58,1.05-3.57.04-.95-.96-.97-2.45-.04-3.44Z"/>
              <path class="cls-4" d="M95.01,217.98c.96-1.03,2.58-1.05,3.57-.04.94.96.96,2.45.04,3.44-.97,1.03-2.58,1.05-3.57.04-.95-.97-.97-2.45-.04-3.44Z"/>
              <path class="cls-4" d="M118.44,217.69c.96-1.03,2.57-1.05,3.57-.05.94.97.96,2.45.04,3.44-.97,1.03-2.58,1.05-3.57.04-.95-.96-.97-2.45-.04-3.44Z"/>
              <path class="cls-4" d="M141.87,217.4c.96-1.03,2.58-1.05,3.56-.04.94.97.96,2.45.04,3.44-.96,1.03-2.58,1.05-3.56.04-.95-.97-.97-2.45-.04-3.44Z"/>
              <path class="cls-4" d="M165.3,217.11c.96-1.03,2.58-1.05,3.57-.04.94.97.96,2.45.04,3.44-.96,1.03-2.58,1.05-3.57.04-.95-.96-.96-2.45-.04-3.44Z"/>
              <path class="cls-4" d="M188.73,216.82c.96-1.03,2.58-1.05,3.57-.04.94.96.96,2.45.04,3.44-.96,1.03-2.58,1.05-3.57.05-.95-.97-.97-2.45-.04-3.44Z"/>
              <path class="cls-4" d="M212.17,216.53c.96-1.03,2.57-1.05,3.57-.04.94.96.96,2.45.04,3.44-.97,1.03-2.58,1.05-3.57.04-.95-.97-.97-2.45-.04-3.44Z"/>
              <path class="cls-4" d="M235.6,216.25c.96-1.03,2.57-1.05,3.57-.04.94.96.96,2.45.04,3.44-.97,1.03-2.58,1.05-3.57.04-.95-.97-.97-2.45-.04-3.44Z"/>
              <path class="cls-4" d="M259.03,215.96c.96-1.03,2.58-1.05,3.56-.04.94.97.96,2.45.04,3.44-.96,1.03-2.58,1.05-3.56.04-.95-.97-.97-2.45-.04-3.44Z"/>
              <path class="cls-4" d="M282.46,215.67c.96-1.03,2.58-1.05,3.57-.04.94.96.96,2.45.04,3.44-.96,1.03-2.58,1.05-3.57.04-.95-.97-.96-2.45-.04-3.44Z"/>
              <path class="cls-4" d="M305.89,215.38c.96-1.03,2.58-1.05,3.57-.04.95.96.96,2.45.04,3.44-.96,1.03-2.58,1.05-3.57.04-.95-.96-.97-2.45-.04-3.44Z"/>
            </g>
            <g>
              <path class="cls-4" d="M1.52,244.58c.96-1.03,2.57-1.05,3.57-.04.95.96.96,2.45.04,3.44-.97,1.03-2.58,1.05-3.57.04-.95-.97-.97-2.45-.04-3.44Z"/>
              <path class="cls-4" d="M24.95,244.29c.96-1.03,2.57-1.05,3.57-.04.94.97.96,2.45.04,3.44-.97,1.03-2.58,1.05-3.57.04-.95-.97-.97-2.45-.04-3.44Z"/>
              <path class="cls-4" d="M48.39,244c.96-1.03,2.57-1.05,3.57-.04.94.96.96,2.45.04,3.44-.97,1.03-2.58,1.05-3.57.05-.95-.97-.97-2.45-.04-3.44Z"/>
              <path class="cls-4" d="M71.81,243.71c.96-1.03,2.58-1.05,3.57-.05.95.96.96,2.45.04,3.44-.96,1.03-2.58,1.05-3.57.04-.95-.97-.96-2.45-.04-3.44Z"/>
              <path class="cls-4" d="M95.25,243.42c.96-1.03,2.58-1.05,3.57-.04.94.96.96,2.45.04,3.44-.96,1.03-2.58,1.05-3.57.04-.94-.97-.96-2.45-.04-3.44Z"/>
              <path class="cls-4" d="M118.68,243.14c.96-1.03,2.57-1.05,3.57-.05.95.96.96,2.45.04,3.44-.97,1.03-2.58,1.05-3.57.04-.95-.97-.97-2.45-.04-3.44Z"/>
              <path class="cls-4" d="M142.11,242.85c.96-1.03,2.57-1.05,3.57-.04.95.96.96,2.45.04,3.44-.97,1.03-2.58,1.05-3.56.04-.95-.97-.97-2.45-.04-3.44Z"/>
              <path class="cls-4" d="M165.55,242.56c.96-1.03,2.57-1.05,3.57-.04.94.97.96,2.45.04,3.44-.97,1.03-2.58,1.05-3.57.04-.95-.96-.97-2.45-.04-3.44Z"/>
              <path class="cls-4" d="M188.98,242.27c.96-1.03,2.57-1.05,3.56-.04.95.96.96,2.45.04,3.44-.96,1.03-2.58,1.05-3.56.04-.95-.96-.96-2.45-.04-3.44Z"/>
              <path class="cls-4" d="M212.41,241.98c.96-1.03,2.58-1.05,3.57-.04.95.96.96,2.45.04,3.44-.96,1.03-2.58,1.05-3.57.04-.95-.97-.96-2.45-.04-3.44Z"/>
              <path class="cls-4" d="M235.84,241.69c.96-1.03,2.58-1.05,3.57-.04.95.96.96,2.45.04,3.43-.96,1.03-2.58,1.05-3.57.04-.95-.97-.97-2.45-.04-3.44Z"/>
              <path class="cls-4" d="M259.27,241.41c.96-1.03,2.57-1.05,3.57-.04.95.96.96,2.45.04,3.44-.97,1.03-2.58,1.05-3.57.04-.95-.97-.96-2.45-.04-3.44Z"/>
              <path class="cls-4" d="M282.71,241.12c.96-1.03,2.57-1.05,3.57-.04.94.96.96,2.45.04,3.44-.97,1.03-2.58,1.05-3.57.05-.95-.97-.97-2.45-.04-3.44Z"/>
            </g>
            <g>
              <path class="cls-4" d="M1.9,270.02c.96-1.03,2.57-1.05,3.57-.05.94.96.96,2.45.04,3.44-.97,1.03-2.58,1.05-3.57.04-.95-.97-.97-2.45-.04-3.43Z"/>
              <path class="cls-4" d="M25.33,269.73c.96-1.03,2.58-1.05,3.57-.04.94.96.96,2.45.04,3.44-.96,1.03-2.58,1.05-3.57.04-.95-.96-.97-2.45-.04-3.44Z"/>
              <path class="cls-4" d="M48.76,269.44c.96-1.03,2.58-1.05,3.57-.04.94.97.96,2.45.04,3.44-.96,1.03-2.58,1.05-3.57.04-.94-.97-.96-2.45-.04-3.44Z"/>
              <path class="cls-4" d="M72.19,269.15c.96-1.03,2.58-1.05,3.57-.04.95.96.96,2.45.04,3.44-.96,1.03-2.58,1.05-3.57.05-.94-.97-.96-2.45-.04-3.44Z"/>
              <path class="cls-4" d="M95.63,268.86c.96-1.03,2.58-1.05,3.57-.05.95.96.96,2.45.04,3.44-.96,1.03-2.58,1.05-3.57.04-.95-.96-.97-2.45-.04-3.44Z"/>
              <path class="cls-4" d="M119.06,268.58c.96-1.03,2.58-1.05,3.57-.04.95.96.96,2.45.04,3.44-.96,1.03-2.58,1.05-3.57.04-.95-.97-.97-2.45-.04-3.44Z"/>
              <path class="cls-4" d="M142.49,268.29c.96-1.03,2.58-1.05,3.57-.04.94.97.96,2.45.04,3.44-.96,1.03-2.58,1.05-3.57.04-.95-.97-.97-2.45-.04-3.44Z"/>
              <path class="cls-4" d="M165.93,268c.96-1.03,2.57-1.05,3.56-.04.95.96.96,2.45.04,3.44-.96,1.03-2.58,1.05-3.56.04-.95-.96-.97-2.45-.04-3.44Z"/>
              <path class="cls-4" d="M189.35,267.71c.96-1.03,2.58-1.05,3.57-.04.95.97.96,2.45.04,3.44-.96,1.03-2.58,1.05-3.57.05-.95-.97-.96-2.45-.04-3.44Z"/>
              <path class="cls-4" d="M212.79,267.42c.96-1.03,2.58-1.05,3.57-.04.95.96.96,2.45.04,3.44-.96,1.03-2.58,1.05-3.57.04-.95-.97-.96-2.45-.04-3.44Z"/>
              <path class="cls-4" d="M236.22,267.13c.96-1.03,2.57-1.05,3.57-.04.95.96.96,2.45.04,3.44-.97,1.03-2.58,1.05-3.57.04-.95-.97-.97-2.45-.04-3.44Z"/>
              <path class="cls-4" d="M259.65,266.85c.96-1.03,2.58-1.05,3.57-.04.94.96.96,2.45.04,3.44-.97,1.03-2.58,1.05-3.57.04-.95-.97-.97-2.45-.04-3.44Z"/>
              <path class="cls-4" d="M283.09,266.56c.96-1.03,2.57-1.05,3.56-.04.95.96.96,2.44.04,3.43-.96,1.03-2.58,1.05-3.56.04-.95-.97-.97-2.45-.04-3.44Z"/>
            </g>
          </g>
          <g>
            <path class="cls-6" d="M317,181.43c.13.31-.13,1-.05.16.06,0,.05-.1.05-.16Z"/>
            <path class="cls-6" d="M194.72,338.18c.54,1.19,1.23,2.25,1.43,3.79.25.23.66.29.99.44h-2.41v-4.23Z"/>
            <path class="cls-6" d="M334.23,165.46h.99v.06c1.13.51,2.32,1.66,3.57,2.25.22.1.48.12.71.22.18.08.3.25.49.33.27.11.51.08.77.17.21.07.39.22.6.33.45.24.94.39,1.37.66.27.17.49.58.82.88.33.29.7.47.93.77.25.32.47.69.71.99.27.34.6.6.77.88.32.52.56,1.24.88,1.87.26.52.87,1.28.88,1.81.01.55-.43,1.4-.6,1.92-.2.6-.38,1.43-.66,1.87-.46.71-1.56.99-2.14,1.65-.4.45-.33.94-.77,1.37-.28,0-.49-.31-.77-.16-.55.29-1.04,2.1-1.48,2.63-.15.18-.52.3-.66.55-.38.67-.27,1.85-.44,2.53-.4-.12-.83.04-1.21.22-.26.12-.84.35-.93.6-.26.7.04,2.01,0,2.96-.05,1.08-.14,1.88-.55,2.52-.92.1-1.38-.26-1.98-.49-.7.36-.91,1.21-1.48,1.7-.54-.1-1.07-.25-1.48.05-.31.27.32.64.05,1.04-.25.25-1.02-.03-1.26.22,4.15,1.47,8.31,3.11,12.62,4.66,1.99.72,4.13,1.81,6.48,2.14,1.27.18,2.53.41,3.4.93,1.09.65,2.21,1.94,3.79,1.37.95-.34,1.88-1.19,2.74-1.87,5.21-4.07,10.87-7.35,15.26-12.4.55-.63,1.82-1.93,1.87-2.69.06-1.01-.97-1.33-.82-2.14.65.17.41,1.24,1.1,1.37-.3-1.39-1.7-1.79-2.31-3.07-.69-1.46-.41-3.65-1.04-5.1-.25-.57-.62-.85-.93-1.32,1.75-.66,3.24.48,3.62,1.87.51-1.92,1.22-3.65,2.09-5.21,1.08-.47,1.99-1.12,2.47-2.2.61.39,1.5.21,2.42.22.13.26.44.65.49,1.1.06.45-.13.9-.11,1.1.43-.05.94-.2,1.32,0,.5,2.16.86,4.63,1.04,7.14.2,2.71-.09,5.05-1.1,6.97-.88,1.68-2.14,3.3-3.29,4.88-1.17,1.61-2.31,3.27-3.46,4.72-4.46,5.64-9.8,10.59-14.65,16.03-.37.42-.69.96-.99,1.04-.43.12-1.22.05-1.87.06-8.28.09-16.22-.28-22.78-1.92-1-.25-1.98-.65-2.96-.82-.93-.17-2.11-.18-3.18-.33-1.42-.2-2.89-.78-3.95-.11-.53.33-.97,1.17-1.48,1.81-1.41,1.77-2.43,4.21-3.79,5.93-.94,1.19-2.2,2.12-3.13,3.35-3.71,4.9-6.74,10.55-10.65,15.26-.48.58-1,1.17-1.48,1.76-.49.59-1.14,1.12-1.32,1.92-.07-.33-.1-.2-.27-.06-.23.19-.75.86-.6.93,12.93,2.47,25.49,6.05,36.5,10.81,2.15.93,4.34,2.1,5.43,4.01,2.24,3.91.14,9.88-1.21,13.34-.22.56-.36,1.28-.66,1.7-.11.16-.15.24-.22.27-.03.01-.29-.27-.22.05-2.26,12.85-9.78,20.44-10.37,34.96.31.14.25-.55.66-.16.75.7-.54,1.53-.66,2.2.28.36.62-.51.93-.11.25,2.3,2.19,3.62,3.51,4.94,1.14,1.14,2.35,2.09,3.57,3.18.65.58,1.14,1.19,1.76,1.65,1.17.87,2.85,1.92,4.5,2.25.8.16,2.32.18,2.91.66.14.11.23.34.38.55.22.29.36.33.38.55.06.52-.3.93-.33,1.48-1.45.96-4.21.62-5.6,1.65-.9-.66-2.84-.96-3.62,0-.74-1.07-3.16-.84-4.56-1.15-2.93-.65-5.38-2.33-7.96-3.62-1.78-.89-3.6-1.56-5.6-2.14-1.89-.55-3.85-1.09-5.6-2.09-.84-5.17,2.55-7.7,4.12-11.03,2.38-5.08,3.57-12.04,3.57-19.48,0-2.46-.38-4.95-.16-7.41.41-4.61,2.28-8.07,3.35-11.96-9.76-1.56-19.1,1.83-29.31.93-.6-.05-1.48-.3-1.87-.22-.47.1-1.62,1.41-2.2,2.03-3.41,3.7-6.12,7.86-9.77,11.25-1.48,1.38-2.81,2.85-4.12,4.28-4.71,5.13-9.51,10.05-14.98,14.43-1.56,1.25-2.64,2.86-5.05,3.35-1.12.23-2.5.16-4.01.16-2.72.02-5.07.77-7.03,1.37-4.24,1.3-8.15,3.22-12.13,4.66-7.22,2.63-15.19,4.39-20.97,8.45-.4.28-.83.56-1.21.88-.39.33-.68.75-1.1.99-.19.11-.34-.03-.49.28h-1.1c.2.43.92.42.93,1.15.01.51-.8,1.35-1.21,1.54-.55.25-1.23.23-1.76.38-3.69,1.11-6.27,3.84-8.29,6.64-1.52.1-2.15,1.38-2.74,2.58-.44.88-.79,1.83-1.15,2.69-.77,1.84-1.51,3.65-3.29,4.34h-.77c-.33-.15-.74-.21-.99-.44-.2-1.54-.88-2.59-1.43-3.79v-.99c.2-4.16.7-8.01,1.98-11.09.21-.32.6.3.77,0,1.99-4.17,4.58-8.2,6.26-12.73.56-1.51.87-3.15,1.92-4.39.38.14.59-.17.93-.22,1.42-.19,2.96.73,4.28.82.3.37-.23.76-.06,1.15,1.86-.08,2.99.56,4.28,1.04,1.09-.74,2.35-.97,3.46-1.54,1.08-.55,2.05-1.29,3.07-1.92,2.07-1.26,4.1-2.54,6.2-3.79,2.83-2.67,5.33-5.5,8.78-7.46,1.12-.64,2.5-.97,3.9-1.48,5.41-1.99,12.66-1.5,17.07-4.5,2.14-1.46,3.19-4,4.17-6.64.95-2.56,2.3-5.1,3.57-7.19,1.4-2.32,2.66-4.32,4.17-6.64.67-1.02,1.38-2.15,1.98-3.4.51-1.08,1.29-3.1,1.1-4.5-.15-1.06-.41-1.89-.38-2.85.05-1.87.55-3.81.99-5.49.23-.88.33-1.82.6-2.63.51-1.51,2.31-2.76,3.51-3.68,1.37-1.05,2.66-2.13,3.29-3.84.44-.21.74-.55,1.21-.88.37-.25,1.08-.48,1.26-.82.25-.48.3-1.63.44-2.41.97-5.49,2.11-11.26,3.02-16.8.79-4.82,1.87-9.41,2.58-14.38.23-1.65.19-3.29-.49-4.83-1.48.12-3.14.33-4.5.38-.44-1.61-.73-3.37-1.37-4.78-4.3,1.33-7.72-1.22-11.8-1.26-1.92-.02-3.6.89-5.32,1.59-1.68.68-3.55,1.15-5.43,1.43-8.02,1.19-16.93,1.23-23.71,3.84.06.18.45.02.49.22-.36.4-.82.88-1.32,1.43-.4.45-.77,1.22-1.26,1.48-.67.35-1.65.35-2.36.55-.7.19-1.51.47-1.98.93-.34.34-.85,2.27-1.92,1.92-.89-.29-.25-2.58,0-3.07.12-.24.31-.53.49-.77.17-.22.5-.41.44-.6-2.43-.56-5.97-.71-8.29-1.81-.49-.24-1.84-.95-1.81-1.54.03-.54.75-.34.71-.82-.49-.32-1.2-.21-1.37-.71-.16-.45.34-1.1.38-1.81.03-.51-.12-.82-.16-1.32.86-.35,2-.75,3.07-.55.3-.42-.59-.47-.44-1.1,1.05-.79,2.52-.99,3.95-1.15,1.49-.17,3.1-.32,4.72-.38,1.53-.06,3.08.36,4.39.71,1.28.34,3.02.83,4.34.33.73-.28,1.37-.73,2.03-1.1,1.96-1.09,4.38-1.76,6.75-2.47,8.56-2.56,18.6-3.96,28.27-5.54.82-.13,1.68-.48,2.52-.22-.32-.62.68-.56,1.37-.71,1.2-.27,2.45-.69,3.57-.88,1.86-.31,3.65-.51,5.32-.66,1.82-.17,3.77.02,5.38-.49,1.56-.5,3.05-1.18,4.45-1.48,2.5-.54,6.06.1,8.01.66,1,.29,2.13.75,3.13,1.21.85.39,2.5,1.14,3.46.88.42-.11.82-.97,1.21-1.32,1.3-1.16,3.36-1.89,3.46-4.06-.11-.16-.29.36-.38.22.71-3.27,2.13-5.85,2.96-9,.12-.44.11-1,.27-1.43.3-.77,1.71-1.93,2.41-2.41,2.92-2.04,7.01-2.65,11.53-2.96Z"/>
          </g>
          <g>
            <path class="cls-5" d="M456.96,324.24s-20.09.6-37.92,4.16-51.12,13.08-60.63,16.64c-9.51,3.57-51.28,20.72-66.58,23.78-25.26,5.05-70.14,11.29-94.52,8.92s-96.3-13.67-111.16-16.64-47.85-9.21-47.85-9.21c0,0,66.28,21.7,82.92,25.26,16.64,3.57,55.58,10.7,87.38,12.48,18.44,1.03,78.14-3.6,90.95-7.13,25.86-7.13,73.41-21.1,90.95-24.67,12.83-2.61,35.07-6.24,43.99-6.24s22.47-27.35,22.47-27.35Z"/>
            <path class="cls-10" d="M456.96,324.24s-55.88,1.78-120.47,29.13c-42.36,17.93-78.11,21.96-119.09,24.5-55.28,3.43-203.89-33.42-203.89-33.42"/>
            <path class="cls-9" d="M440.32,351.17s-47.89.98-107.34,21.41c-18.53,6.37-35.81,9.82-51.18,12.09-29.48,4.37-58.56,4.96-82.23,3.77-82.63-4.16-186.06-43.99-186.06-43.99"/>
          </g>
        </g>
      </g>
    </g>
  </g>
</svg>