<?xml version="1.0" encoding="UTF-8" standalone="no"?>
<svg xmlns="http://www.w3.org/2000/svg" version="1.2" baseProfile="tiny" viewBox="0.00 0.00 1448.00 1448.00">
<g stroke-width="2.00" fill="none" stroke-linecap="butt">
<path stroke="#a0b037" vector-effect="non-scaling-stroke" d="
  M 911.15 299.84
  Q 910.27 300.28 910.68 299.89"
/>
<path stroke="#a3d7ab" vector-effect="non-scaling-stroke" d="
  M 910.68 299.89
  C 792.01 214.01 629.44 238.32 539.49 352.51"
/>
<path stroke="#43774b" vector-effect="non-scaling-stroke" d="
  M 539.49 352.51
  Q 535.24 356.66 537.50 357.82"
/>
<path stroke="#a3d7ab" vector-effect="non-scaling-stroke" d="
  M 537.50 357.82
  L 538.70 360.30"
/>
<path stroke="#87bb8e" vector-effect="non-scaling-stroke" d="
  M 538.70 360.30
  C 604.22 467.28 697.76 552.59 809.48 609.09"
/>
<path stroke="#a0b037" vector-effect="non-scaling-stroke" d="
  M 809.48 609.09
  Q 809.19 611.61 807.74 613.95"
/>
<path stroke="#3ba64b" vector-effect="non-scaling-stroke" d="
  M 622.98 775.99
  Q 619.82 775.67 618.05 775.21
  C 570.60 762.93 528.85 734.98 493.26 701.23
  Q 450.67 660.84 415.73 613.74
  C 363.35 543.14 319.16 465.86 282.85 385.97"
/>
<path stroke="#299f46" vector-effect="non-scaling-stroke" d="
  M 282.85 385.97
  Q 282.51 384.07 281.44 383.93"
/>
<path stroke="#e0bb6f" vector-effect="non-scaling-stroke" d="
  M 809.48 609.09
  Q 813.89 597.00 820.11 585.79"
/>
<path stroke="#1b823a" vector-effect="non-scaling-stroke" d="
  M 614.35 833.07
  C 436.11 749.26 312.50 582.21 282.34 388.01"
/>
<path stroke="#1d963b" vector-effect="non-scaling-stroke" d="
  M 282.85 385.97
  L 282.34 388.01"
/>
<path stroke="#097a35" vector-effect="non-scaling-stroke" d="
  M 282.34 388.01
  Q 281.75 388.28 281.14 388.27"
/>
<path stroke="#239c36" vector-effect="non-scaling-stroke" d="
  M 281.14 388.27
  Q 280.95 387.99 280.95 387.87
  A 0.42 0.42 0.0 0 0 280.15 387.70
  C 156.25 664.00 271.80 987.15 543.08 1121.67
  Q 554.65 1127.41 578.28 1137.73"
/>
<path stroke="#fcd88c" vector-effect="non-scaling-stroke" d="
  M 910.68 299.89
  C 841.61 360.95 822.87 456.81 862.55 539.85
  Q 862.77 540.32 862.34 540.61
  Q 835.83 558.23 820.11 585.79"
/>
<path stroke="#e3e3e3" vector-effect="non-scaling-stroke" d="
  M 820.11 585.79
  C 791.39 577.30 764.76 562.40 739.49 544.79
  C 703.25 519.54 669.40 490.74 637.24 460.51
  Q 589.67 415.81 545.71 367.54
  C 543.66 365.29 540.76 360.96 538.70 360.30"
/>
<path stroke="#9f9f9f" vector-effect="non-scaling-stroke" d="
  M 537.50 357.82
  Q 539.24 355.26 539.49 352.51"
/>
<path stroke="#218834" vector-effect="non-scaling-stroke" d="
  M 281.14 388.27
  Q 278.56 420.92 278.71 438.51
  Q 280.13 610.47 374.28 752.06
  C 484.46 917.75 679.69 1013.38 878.97 999.05"
/>
<path stroke="#9f9f9f" vector-effect="non-scaling-stroke" d="
  M 745.55 365.74
  A 41.15 41.15 0.0 0 0 704.40 324.59
  A 41.15 41.15 0.0 0 0 663.25 365.74
  A 41.15 41.15 0.0 0 0 704.40 406.89
  A 41.15 41.15 0.0 0 0 745.55 365.74"
/>
<path stroke="#9f9f9f" vector-effect="non-scaling-stroke" d="
  M 728.47 353.16
  A 16.34 16.34 0.0 0 0 712.13 336.82
  A 16.34 16.34 0.0 0 0 695.79 353.16
  A 16.34 16.34 0.0 0 0 712.13 369.50
  A 16.34 16.34 0.0 0 0 728.47 353.16"
/>
</g>
<path fill="#47af56" d="
  M 911.15 299.84
  Q 910.27 300.28 910.68 299.89
  C 792.01 214.01 629.44 238.32 539.49 352.51
  Q 535.24 356.66 537.50 357.82
  L 538.70 360.30
  C 604.22 467.28 697.76 552.59 809.48 609.09
  Q 809.19 611.61 807.74 613.95
  C 719.04 628.08 647.90 689.59 622.98 775.99
  Q 619.82 775.67 618.05 775.21
  C 570.60 762.93 528.85 734.98 493.26 701.23
  Q 450.67 660.84 415.73 613.74
  C 363.35 543.14 319.16 465.86 282.85 385.97
  Q 282.51 384.07 281.44 383.93
  Q 296.28 360.84 313.68 342.18
  C 445.98 200.34 644.28 141.80 832.79 187.79
  Q 844.82 190.72 851.90 193.65
  C 894.13 211.11 917.76 254.53 911.15 299.84
  Z"
/>
<path fill="#ffffff" d="
  M 910.68 299.89
  C 841.61 360.95 822.87 456.81 862.55 539.85
  Q 862.77 540.32 862.34 540.61
  Q 835.83 558.23 820.11 585.79
  C 791.39 577.30 764.76 562.40 739.49 544.79
  C 703.25 519.54 669.40 490.74 637.24 460.51
  Q 589.67 415.81 545.71 367.54
  C 543.66 365.29 540.76 360.96 538.70 360.30
  L 537.50 357.82
  Q 539.24 355.26 539.49 352.51
  C 629.44 238.32 792.01 214.01 910.68 299.89
  Z
  M 745.55 365.74
  A 41.15 41.15 0.0 0 0 704.40 324.59
  A 41.15 41.15 0.0 0 0 663.25 365.74
  A 41.15 41.15 0.0 0 0 704.40 406.89
  A 41.15 41.15 0.0 0 0 745.55 365.74
  Z"
/>
<path fill="#f9b018" d="
  M 910.68 299.89
  Q 910.27 300.28 911.15 299.84
  C 996.84 363.83 1037.37 466.81 1016.80 572.13
  A 0.24 0.24 0.0 0 1 1016.33 572.11
  C 1014.38 554.97 1007.62 541.13 993.45 531.63
  C 980.05 522.66 959.06 519.10 942.90 518.30
  Q 942.39 518.28 942.19 518.75
  Q 933.15 540.10 919.23 561.22
  C 892.90 601.17 853.57 613.52 807.74 613.95
  Q 809.19 611.61 809.48 609.09
  Q 813.89 597.00 820.11 585.79
  Q 835.83 558.23 862.34 540.61
  Q 862.77 540.32 862.55 539.85
  C 822.87 456.81 841.61 360.95 910.68 299.89
  Z"
/>
<path fill="#3f3f3f" d="
  M 745.55 365.74
  A 41.15 41.15 0.0 0 1 704.40 406.89
  A 41.15 41.15 0.0 0 1 663.25 365.74
  A 41.15 41.15 0.0 0 1 704.40 324.59
  A 41.15 41.15 0.0 0 1 745.55 365.74
  Z
  M 728.47 353.16
  A 16.34 16.34 0.0 0 0 712.13 336.82
  A 16.34 16.34 0.0 0 0 695.79 353.16
  A 16.34 16.34 0.0 0 0 712.13 369.50
  A 16.34 16.34 0.0 0 0 728.47 353.16
  Z"
/>
<circle fill="#ffffff" cx="712.13" cy="353.16" r="16.34"/>
<path fill="#3f3f3f" d="
  M 539.49 352.51
  Q 539.24 355.26 537.50 357.82
  Q 535.24 356.66 539.49 352.51
  Z"
/>
<path fill="#c6c6c6" d="
  M 538.70 360.30
  C 540.76 360.96 543.66 365.29 545.71 367.54
  Q 589.67 415.81 637.24 460.51
  C 669.40 490.74 703.25 519.54 739.49 544.79
  C 764.76 562.40 791.39 577.30 820.11 585.79
  Q 813.89 597.00 809.48 609.09
  C 697.76 552.59 604.22 467.28 538.70 360.30
  Z"
/>
<path fill="#0b8e36" d="
  M 281.44 383.93
  Q 282.51 384.07 282.85 385.97
  L 282.34 388.01
  Q 281.75 388.28 281.14 388.27
  Q 280.95 387.99 280.95 387.87
  A 0.42 0.42 0.0 0 0 280.15 387.70
  C 156.25 664.00 271.80 987.15 543.08 1121.67
  Q 554.65 1127.41 578.28 1137.73
  Q 578.94 1139.20 580.31 1140.38
  Q 582.30 1142.11 582.72 1142.60
  C 609.02 1173.20 595.88 1222.23 554.27 1229.83
  C 544.14 1231.68 536.51 1230.25 526.43 1226.04
  C 236.41 1104.89 101.46 769.36 228.91 480.92
  Q 250.89 431.18 281.44 383.93
  Z"
/>
<path fill="#2e9d40" d="
  M 282.85 385.97
  C 319.16 465.86 363.35 543.14 415.73 613.74
  Q 450.67 660.84 493.26 701.23
  C 528.85 734.98 570.60 762.93 618.05 775.21
  Q 619.82 775.67 622.98 775.99
  Q 615.39 804.01 614.35 833.07
  C 436.11 749.26 312.50 582.21 282.34 388.01
  L 282.85 385.97
  Z"
/>
<path fill="#3aaa35" d="
  M 281.14 388.27
  Q 278.56 420.92 278.71 438.51
  Q 280.13 610.47 374.28 752.06
  C 484.46 917.75 679.69 1013.38 878.97 999.05
  Q 885.90 998.32 892.75 997.66
  C 1049.61 982.49 1191.67 903.04 1287.22 777.97
  Q 1287.89 777.10 1288.40 776.80
  A 1.07 1.07 0.0 0 1 1289.96 778.04
  Q 1282.58 802.61 1272.91 826.47
  Q 1257.43 864.70 1231.59 896.86
  C 1144.52 1005.22 1027.12 1076.93 890.26 1103.02
  Q 883.64 1104.28 857.33 1108.15
  Q 856.70 1108.25 857.31 1108.43
  Q 857.81 1108.58 858.50 1108.52
  C 877.23 1106.91 894.92 1105.03 912.87 1101.88
  Q 1048.11 1078.15 1157.78 995.70
  A 1.31 1.31 0.0 0 1 1159.41 995.76
  Q 1159.87 996.16 1159.70 996.81
  Q 1159.61 997.18 1159.18 997.62
  C 1062.59 1096.99 934.02 1157.06 796.07 1167.60
  Q 780.21 1168.81 764.32 1168.81
  Q 764.07 1168.81 763.39 1169.06
  Q 762.91 1169.24 762.45 1169.23
  C 751.03 1168.92 738.49 1168.87 728.18 1168.35
  Q 668.05 1165.28 609.83 1149.65
  Q 602.56 1147.69 578.28 1137.73
  Q 554.65 1127.41 543.08 1121.67
  C 271.80 987.15 156.25 664.00 280.15 387.70
  A 0.42 0.42 0.0 0 1 280.95 387.87
  Q 280.95 387.99 281.14 388.27
  Z"
/>
<path fill="#076633" d="
  M 282.34 388.01
  C 312.50 582.21 436.11 749.26 614.35 833.07
  Q 614.75 833.57 615.19 833.77
  Q 736.40 889.76 869.85 889.48
  Q 873.50 889.47 876.50 890.51
  C 927.88 908.36 929.92 977.02 879.43 998.23
  Q 878.63 998.56 878.97 999.05
  C 679.69 1013.38 484.46 917.75 374.28 752.06
  Q 280.13 610.47 278.71 438.51
  Q 278.56 420.92 281.14 388.27
  Q 281.75 388.28 282.34 388.01
  Z"
/>
</svg>
